<?xml version="1.0" encoding="UTF-8" standalone="no"?>
<!-- Created with Inkscape (http://www.inkscape.org/) -->

<svg
   xmlns:dc="http://purl.org/dc/elements/1.1/"
   xmlns:cc="http://creativecommons.org/ns#"
   xmlns:rdf="http://www.w3.org/1999/02/22-rdf-syntax-ns#"
   xmlns:svg="http://www.w3.org/2000/svg"
   xmlns="http://www.w3.org/2000/svg"
   xmlns:sodipodi="http://sodipodi.sourceforge.net/DTD/sodipodi-0.dtd"
   xmlns:inkscape="http://www.inkscape.org/namespaces/inkscape"
   version="1.1"
   id="svg171"
   xml:space="preserve"
   width="375.33334"
   height="123.62666"
   viewBox="0 0 375.33334 123.62666"
   sodipodi:docname="turku-pet-Horisontal-logo-300ppi - SE edit 2.svg"
   inkscape:version="0.92.4 (5da689c313, 2019-01-14)"><metadata
     id="metadata177"><rdf:RDF><cc:Work
         rdf:about=""><dc:format>image/svg+xml</dc:format><dc:type
           rdf:resource="http://purl.org/dc/dcmitype/StillImage" /><dc:title></dc:title></cc:Work></rdf:RDF></metadata><defs
     id="defs175"><clipPath
       clipPathUnits="userSpaceOnUse"
       id="clipPath189"><path
         d="M 0,142.22 H 281.5 V 0 H 0 Z"
         id="path187"
         inkscape:connector-curvature="0" /></clipPath><linearGradient
       x1="0"
       y1="0"
       x2="1"
       y2="0"
       gradientUnits="userSpaceOnUse"
       gradientTransform="matrix(10.98732,-4.6638403,-4.6638403,-10.98732,47.283577,68.976715)"
       spreadMethod="pad"
       id="linearGradient215"><stop
         style="stop-opacity:1;stop-color:#24c2e8"
         offset="0"
         id="stop211" /><stop
         style="stop-opacity:1;stop-color:#00ade5"
         offset="1"
         id="stop213" /></linearGradient><linearGradient
       x1="0"
       y1="0"
       x2="1"
       y2="0"
       gradientUnits="userSpaceOnUse"
       gradientTransform="matrix(-7.4021425,2.1225302,2.1225302,7.4021425,68.956711,60.949089)"
       spreadMethod="pad"
       id="linearGradient235"><stop
         style="stop-opacity:1;stop-color:#24c2e8"
         offset="0"
         id="stop231" /><stop
         style="stop-opacity:1;stop-color:#00baee"
         offset="1"
         id="stop233" /></linearGradient><clipPath
       clipPathUnits="userSpaceOnUse"
       id="clipPath245"><path
         d="M 0,142.22 H 281.5 V 0 H 0 Z"
         id="path243"
         inkscape:connector-curvature="0" /></clipPath><linearGradient
       x1="0"
       y1="0"
       x2="1"
       y2="0"
       gradientUnits="userSpaceOnUse"
       gradientTransform="matrix(-1.580032,8.1285601,8.1285601,1.580032,90.163399,83.120201)"
       spreadMethod="pad"
       id="linearGradient269"><stop
         style="stop-opacity:1;stop-color:#24c2e8"
         offset="0"
         id="stop263" /><stop
         style="stop-opacity:1;stop-color:#00aae3"
         offset="0.44"
         id="stop265" /><stop
         style="stop-opacity:1;stop-color:#24c2e8"
         offset="1"
         id="stop267" /></linearGradient><clipPath
       clipPathUnits="userSpaceOnUse"
       id="clipPath279"><path
         d="M 0,142.22 H 281.5 V 0 H 0 Z"
         id="path277"
         inkscape:connector-curvature="0" /></clipPath></defs><sodipodi:namedview
     pagecolor="#ffffff"
     bordercolor="#666666"
     borderopacity="1"
     objecttolerance="10"
     gridtolerance="10"
     guidetolerance="10"
     inkscape:pageopacity="0"
     inkscape:pageshadow="2"
     inkscape:window-width="1743"
     inkscape:window-height="908"
     id="namedview173"
     showgrid="false"
     inkscape:zoom="1.2335701"
     inkscape:cx="90.793379"
     inkscape:cy="94.813332"
     inkscape:window-x="31"
     inkscape:window-y="343"
     inkscape:window-maximized="0"
     inkscape:current-layer="g179" /><g
     id="g179"
     inkscape:groupmode="layer"
     inkscape:label="turku-pet-Horisontal-logo-300ppi - SE edit"
     transform="matrix(1.3333333,0,0,-1.3333333,0,189.62667)"><path
       d="M 0.85799099,48.639311 H 281.5 V 142.22 H 0.85799099 Z"
       style="fill:#ffffff;fill-opacity:1;fill-rule:nonzero;stroke:none;stroke-width:0.81029439"
       id="path181"
       inkscape:connector-curvature="0" /><g
       id="g183"
       transform="matrix(1.2660531,0,0,1.2729127,-39.485492,5.2997928)"><g
         id="g185"
         clip-path="url(#clipPath189)"><g
           id="g191"
           transform="translate(180.8848,67.9602)"><path
             d="m 0,0 c -0.948,-0.74 -2.002,-1.111 -3.156,-1.111 -3.186,0 -4.778,1.708 -4.778,5.129 v 8.655 h 3.368 V 4.128 c 0,-0.832 0.134,-1.428 0.409,-1.79 0.269,-0.356 0.712,-0.533 1.323,-0.533 1.015,0 1.958,0.538 2.834,1.621 v 9.247 H 3.31 V -0.789 H 0 Z m -10.494,-0.789 h -3.975 l -3.819,5.961 -0.732,-0.716 v -5.245 h -3.31 v 18.605 h 3.31 V 8.545 l 4.003,4.128 h 4.354 l -5.34,-5.215 z M -24.817,9.373 c -0.294,0.125 -0.569,0.216 -0.828,0.273 -0.254,0.063 -0.611,0.097 -1.063,0.097 -0.452,0 -0.861,-0.116 -1.241,-0.346 -0.375,-0.231 -0.746,-0.587 -1.112,-1.064 v -9.122 h -3.31 v 13.462 h 3.31 v -0.775 c 0.818,0.731 1.712,1.098 2.694,1.098 0.179,0 0.39,-0.015 0.64,-0.044 0.25,-0.024 0.553,-0.077 0.91,-0.154 z M -39.863,0 c -0.948,-0.74 -2.001,-1.111 -3.156,-1.111 -3.184,0 -4.777,1.708 -4.777,5.129 v 8.655 h 3.367 V 4.128 c 0,-0.832 0.136,-1.428 0.41,-1.79 0.269,-0.356 0.712,-0.533 1.323,-0.533 1.015,0 1.958,0.538 2.833,1.621 v 9.247 h 3.311 V -0.789 h -3.311 z M 64.52,14.421 H 58.727 V -0.983 h -3.484 v 15.404 h -5.764 v 3.2 H 64.52 Z M 46.863,-0.983 H 32.642 v 18.604 h 13.812 v -3.2 H 36.109 V 10.222 H 45.79 V 7.051 H 36.109 V 2.216 H 46.863 Z M 17.78,9.206 h 3.887 c 0.641,0 1.184,0.058 1.626,0.179 0.448,0.115 0.813,0.288 1.093,0.519 0.284,0.231 0.491,0.514 0.621,0.847 0.135,0.332 0.197,0.721 0.197,1.164 0,0.534 -0.097,0.962 -0.289,1.289 -0.192,0.323 -0.452,0.578 -0.789,0.761 -0.332,0.182 -0.717,0.303 -1.154,0.365 -0.439,0.063 -0.896,0.091 -1.376,0.091 H 17.78 Z m -3.468,8.415 h 7.129 c 0.957,0 1.881,-0.082 2.762,-0.246 0.885,-0.163 1.664,-0.461 2.333,-0.89 0.674,-0.423 1.213,-1.005 1.617,-1.732 0.404,-0.726 0.606,-1.654 0.606,-2.785 0,-1.983 -0.601,-3.469 -1.804,-4.46 C 25.752,6.517 23.967,6.021 21.596,6.021 H 17.78 v -7.004 h -3.468 z m 21.272,-40.057 h -8.413 v 11.006 h 8.171 v -1.892 h -6.119 v -2.485 h 5.727 v -1.876 h -5.727 v -2.861 h 6.361 z m -19.702,6.322 h 2.734 c 0.368,0 0.684,0.025 0.943,0.073 0.262,0.052 0.475,0.134 0.643,0.251 0.168,0.117 0.29,0.268 0.367,0.455 0.077,0.185 0.117,0.416 0.117,0.687 0,0.489 -0.151,0.847 -0.457,1.076 -0.3,0.226 -0.77,0.341 -1.402,0.341 h -2.945 z m 4.143,-3.327 c -0.07,0.204 -0.171,0.395 -0.298,0.569 -0.128,0.177 -0.277,0.326 -0.442,0.455 -0.167,0.128 -0.352,0.228 -0.555,0.302 -0.202,0.07 -0.418,0.108 -0.646,0.108 h -2.202 v -4.429 h -2.058 v 11.006 h 4.935 c 0.296,0 0.574,-0.006 0.843,-0.02 0.266,-0.014 0.523,-0.045 0.768,-0.096 0.242,-0.049 0.478,-0.126 0.7,-0.225 0.222,-0.099 0.435,-0.237 0.641,-0.407 0.361,-0.307 0.631,-0.681 0.813,-1.119 0.18,-0.438 0.271,-0.891 0.271,-1.351 0,-0.672 -0.162,-1.25 -0.487,-1.731 -0.328,-0.481 -0.772,-0.849 -1.34,-1.104 0.239,-0.177 0.455,-0.405 0.642,-0.678 0.189,-0.276 0.357,-0.615 0.501,-1.014 l 1.185,-3.261 h -2.218 z m -9.826,6.119 H 6.772 v -9.114 h -2.06 v 9.114 h -3.41 v 1.892 h 8.897 z m -12.521,-9.114 h -1.932 l -4.913,7.363 v -7.363 h -1.976 v 11.006 h 1.942 l 4.887,-7.372 v 7.372 h 1.992 z m -12.778,0 h -8.413 v 11.006 h 8.171 v -1.892 h -6.119 v -2.485 h 5.728 v -1.876 h -5.728 v -2.861 h 6.361 z m -14.488,7.545 c -0.057,0.286 -0.157,0.538 -0.302,0.76 -0.142,0.222 -0.321,0.41 -0.532,0.564 -0.21,0.151 -0.452,0.267 -0.725,0.35 -0.274,0.079 -0.561,0.119 -0.869,0.119 -0.472,0 -0.896,-0.083 -1.275,-0.25 -0.378,-0.166 -0.7,-0.41 -0.967,-0.731 -0.265,-0.325 -0.473,-0.723 -0.615,-1.198 -0.146,-0.476 -0.22,-1.026 -0.22,-1.646 0,-0.618 0.074,-1.167 0.22,-1.645 0.142,-0.478 0.35,-0.882 0.615,-1.212 0.267,-0.33 0.589,-0.581 0.964,-0.752 0.376,-0.167 0.794,-0.252 1.255,-0.252 0.661,0 1.207,0.17 1.643,0.512 0.432,0.34 0.706,0.838 0.816,1.488 h 2.11 c -0.077,-0.618 -0.245,-1.162 -0.504,-1.637 -0.259,-0.475 -0.587,-0.877 -0.985,-1.201 -0.398,-0.328 -0.856,-0.572 -1.374,-0.74 -0.521,-0.164 -1.085,-0.247 -1.691,-0.25 -0.794,0.003 -1.509,0.133 -2.146,0.401 -0.638,0.268 -1.176,0.649 -1.622,1.141 -0.444,0.495 -0.789,1.093 -1.031,1.793 -0.241,0.701 -0.362,1.486 -0.362,2.354 0,0.865 0.122,1.652 0.368,2.351 0.244,0.7 0.588,1.296 1.039,1.788 0.447,0.492 0.987,0.87 1.625,1.138 0.638,0.268 1.345,0.402 2.129,0.402 0.569,0 1.104,-0.089 1.611,-0.26 0.506,-0.174 0.959,-0.418 1.357,-0.734 0.402,-0.316 0.738,-0.7 1.01,-1.15 0.275,-0.45 0.456,-0.951 0.55,-1.503 z m -21.331,29.508 h -5.793 V -0.789 h -3.483 v 15.406 h -5.763 v 3.199 h 15.039 z"
             style="fill:#000000;fill-opacity:1;fill-rule:evenodd;stroke:none"
             id="path193"
             inkscape:connector-curvature="0" /></g><g
           id="g195"
           transform="translate(82.9785,90.3118)"><path
             d="m 0,0 c 12.267,-4.427 20.29,-12.182 19.096,-19.574 -0.871,-5.399 -6.47,-9.435 -14.504,-11.352 -1.572,-0.375 -3.176,-0.655 -4.78,-0.852 -4.973,-0.614 -10.576,-0.517 -16.406,0.424 -18.187,2.935 -31.696,12.969 -30.172,22.41 1.18,7.303 11.008,12.112 23.815,12.558 0.156,0.005 0.017,0.001 0.174,0.006 -0.155,-0.013 -0.015,-0.018 -0.169,-0.032 -9.471,-0.873 -16.554,-4.848 -17.486,-10.621 -1.294,-8.021 9.77,-16.48 24.715,-18.891 4.595,-0.741 9.023,-0.824 12.987,-0.351 1.101,0.13 2.205,0.31 3.289,0.542 7.225,1.54 12.344,5.119 13.127,9.965 C 14.632,-9.899 8.963,-3.797 0,0"
             style="fill:#12caf4;fill-opacity:1;fill-rule:evenodd;stroke:none"
             id="path197"
             inkscape:connector-curvature="0" /></g></g></g><g
       id="g199"
       transform="matrix(1.2660531,0,0,1.2729127,-39.485492,5.2997928)"><g
         id="g201"><g
           id="g207"><g
             id="g209"><path
               d="m 47.605,65.318 c 2.918,-1.67 6.29,-3.132 9.993,-4.295 v 0 l 0.018,5.931 c -3.997,1.531 -7.415,3.512 -9.99,5.742 v 0 z"
               style="fill:url(#linearGradient215);stroke:none"
               id="path217"
               inkscape:connector-curvature="0" /></g></g></g></g><g
       id="g219"
       transform="matrix(1.2660531,0,0,1.2729127,-39.485492,5.2997928)"><g
         id="g221"><g
           id="g227"><g
             id="g229"><path
               d="m 58.993,60.602 c 2.351,-0.675 4.825,-1.231 7.392,-1.645 v 0 c 0.876,-0.141 1.745,-0.264 2.609,-0.366 v 0 l 0.016,5.546 c -0.579,0.073 -1.163,0.156 -1.748,0.251 v 0 c -2.921,0.471 -5.691,1.173 -8.252,2.059 v 0 z"
               style="fill:url(#linearGradient235);stroke:none"
               id="path237"
               inkscape:connector-curvature="0" /></g></g></g></g><g
       id="g239"
       transform="matrix(1.2660531,0,0,1.2729127,-39.485492,5.2997928)"><g
         id="g241"
         clip-path="url(#clipPath245)"><g
           id="g247"
           transform="translate(90.5996,79.7561)"><path
             d="m 0,0 c -0.342,13.037 -5.179,23.092 -12.571,24.285 -5.442,0.878 -11.081,-3.239 -15.443,-10.366 -0.626,-1.023 -1.207,-2.077 -1.745,-3.148 -2.369,-4.722 -4.215,-10.415 -5.223,-16.658 -2.935,-18.187 2.339,-34.166 11.78,-35.69 7.392,-1.194 15.147,6.829 19.574,19.098 -3.797,-8.965 -9.899,-14.634 -15.768,-13.687 -8.021,1.295 -12.568,14.459 -10.156,29.403 0.842,5.213 2.42,9.953 4.458,13.862 0.305,0.587 0.627,1.169 0.966,1.736 3.722,6.247 8.673,9.89 13.467,9.116 C -4.792,17.005 -0.784,9.703 0,0"
             style="fill:#12caf4;fill-opacity:1;fill-rule:evenodd;stroke:none"
             id="path249"
             inkscape:connector-curvature="0" /></g></g></g><g
       id="g251"
       transform="matrix(1.2660531,0,0,1.2729127,-39.485492,5.2997928)"><g
         id="g253"><g
           id="g259"><g
             id="g261"><path
               d="m 88.435,89.436 c 0.66,-1.612 1.189,-3.412 1.573,-5.356 v 0 l 0.302,0.012 c -0.206,1.887 -0.513,3.688 -0.915,5.381 v 0 z"
               style="fill:url(#linearGradient269);stroke:none"
               id="path271"
               inkscape:connector-curvature="0" /></g></g></g></g><g
       id="g273"
       transform="matrix(1.2660531,0,0,1.2729127,-39.485492,5.2997928)"><g
         id="g275"
         clip-path="url(#clipPath279)"><g
           id="g281"
           transform="translate(60.8706,92.4768)"><path
             d="M 0,0 -0.714,0.772 C -0.791,0.651 -0.891,0.542 -1.014,0.453 -1.528,0.082 -2.246,0.198 -2.617,0.712 -2.988,1.226 -2.872,1.943 -2.358,2.314 -1.844,2.686 -1.126,2.57 -0.755,2.056 -0.511,1.718 -0.478,1.291 -0.629,0.933 L 0.1,0.182 Z m 24.574,-34.113 0.488,-0.918 c 0.656,0.269 1.436,0.066 1.87,-0.534 0.508,-0.705 0.35,-1.686 -0.354,-2.195 -0.704,-0.508 -1.686,-0.349 -2.194,0.354 -0.509,0.704 -0.35,1.686 0.354,2.194 0.055,0.041 0.112,0.077 0.171,0.108 l -0.534,0.957 z m -9.691,21.282 c 0.139,-0.192 0.235,-0.402 0.29,-0.619 l 13.97,1.052 c 0,0.127 0.06,0.253 0.172,0.335 0.185,0.134 0.445,0.092 0.58,-0.094 0.134,-0.186 0.092,-0.446 -0.094,-0.58 -0.186,-0.134 -0.446,-0.092 -0.58,0.094 -0.018,0.025 -0.033,0.051 -0.045,0.078 l -13.955,-1.512 c -0.044,-0.466 -0.266,-0.914 -0.648,-1.233 l 6.364,-11.967 -0.367,-0.061 -6.544,11.712 c -0.647,-0.237 -1.384,-0.09 -1.89,0.39 l -5.522,-4.686 0.039,-0.051 c 0.268,-0.371 0.185,-0.889 -0.187,-1.158 -0.371,-0.268 -0.889,-0.184 -1.157,0.187 -0.268,0.372 -0.185,0.89 0.187,1.158 0.296,0.215 0.686,0.205 0.967,0.003 l 5.303,5.04 c -0.315,0.61 -0.256,1.338 0.126,1.888 l -6.249,6.756 0.198,0.361 6.479,-6.681 0.003,0.002 c 0.544,0.393 1.23,0.444 1.804,0.195 l 5.636,10.065 c -0.033,0.028 -0.063,0.06 -0.089,0.096 -0.178,0.246 -0.122,0.589 0.123,0.767 0.246,0.177 0.589,0.122 0.767,-0.124 0.177,-0.246 0.122,-0.589 -0.124,-0.767 -0.161,-0.116 -0.365,-0.133 -0.535,-0.06 l -5.26,-10.315 c 0.086,-0.08 0.166,-0.171 0.238,-0.271"
             style="fill:#12caf4;fill-opacity:1;fill-rule:evenodd;stroke:none"
             id="path283"
             inkscape:connector-curvature="0" /></g></g></g></g></svg>